<svg width="216" height="32" viewBox="0 0 216 32" fill="none" xmlns="http://www.w3.org/2000/svg">
<path d="M11.3701 32L38.1547 2.22041L39.127 5.15918H11.0165L6.24306 0H48.8508L22.0663 29.7796L21.0939 26.8408H45.3149L51.0607 32H11.3701Z" fill="#4236C4"/>
<path d="M20.4752 10.2542L0.93924 32H9.60222L29.1599 10.2542H20.4752Z" fill="#4236C4"/>
<path d="M59.5647 9.6875V7.03906H73.4865V9.6875H68.0959V24.5H64.967V9.6875H59.5647ZM78.8129 24.7578C77.5004 24.7578 76.3676 24.4844 75.4145 23.9375C74.4614 23.3828 73.727 22.6016 73.2114 21.5938C72.7036 20.5859 72.4497 19.3984 72.4497 18.0312C72.4497 16.6797 72.7036 15.4961 73.2114 14.4805C73.7192 13.457 74.434 12.6602 75.3559 12.0898C76.2778 11.5195 77.3637 11.2344 78.6137 11.2344C79.4184 11.2344 80.1801 11.3633 80.8989 11.6211C81.6254 11.8789 82.2661 12.2773 82.8208 12.8164C83.3833 13.3555 83.8247 14.043 84.145 14.8789C84.4653 15.707 84.6254 16.6953 84.6254 17.8438V18.8047H73.8911V16.7305H83.0903L81.6489 17.3398C81.6489 16.5977 81.5356 15.9531 81.309 15.4062C81.0825 14.8516 80.7465 14.418 80.3012 14.1055C79.8559 13.793 79.3012 13.6367 78.6372 13.6367C77.9731 13.6367 77.4067 13.793 76.9379 14.1055C76.4692 14.418 76.1137 14.8398 75.8715 15.3711C75.6294 15.8945 75.5083 16.4805 75.5083 17.1289V18.5703C75.5083 19.3672 75.645 20.0508 75.9184 20.6211C76.1997 21.1836 76.5903 21.6133 77.0903 21.9102C77.5981 22.207 78.1879 22.3555 78.8598 22.3555C79.2973 22.3555 79.6958 22.293 80.0551 22.168C80.4223 22.043 80.7348 21.8555 80.9926 21.6055C81.2583 21.3477 81.4614 21.0312 81.602 20.6562L84.4848 20.9961C84.2973 21.7539 83.9497 22.418 83.4419 22.9883C82.9419 23.5508 82.2973 23.9883 81.5083 24.3008C80.727 24.6055 79.8286 24.7578 78.8129 24.7578ZM91.7683 24.7578C90.4636 24.7578 89.3425 24.4727 88.405 23.9023C87.4675 23.3242 86.7487 22.5273 86.2487 21.5117C85.7487 20.4961 85.4987 19.3281 85.4987 18.0078C85.4987 16.6719 85.7526 15.4961 86.2604 14.4805C86.7683 13.4648 87.4909 12.6719 88.4284 12.1016C89.3659 11.5234 90.4714 11.2344 91.7448 11.2344C92.8151 11.2344 93.7604 11.4297 94.5808 11.8203C95.4011 12.2109 96.0534 12.7617 96.5378 13.4727C97.03 14.1758 97.3112 15 97.3815 15.9453H94.4284C94.3503 15.5234 94.1979 15.1445 93.9714 14.8086C93.7448 14.4727 93.4479 14.207 93.0808 14.0117C92.7214 13.8164 92.2917 13.7188 91.7917 13.7188C91.1589 13.7188 90.6042 13.8906 90.1276 14.2344C89.6589 14.5703 89.2917 15.0547 89.0261 15.6875C88.7604 16.3203 88.6276 17.0781 88.6276 17.9609C88.6276 18.8516 88.7565 19.6211 89.0144 20.2695C89.2722 20.9102 89.6394 21.4062 90.1159 21.7578C90.5925 22.1016 91.1511 22.2734 91.7917 22.2734C92.4714 22.2734 93.0456 22.0742 93.5144 21.6758C93.9909 21.2773 94.2956 20.7266 94.4284 20.0234H97.3815C97.3112 20.9531 97.0378 21.7734 96.5612 22.4844C96.0847 23.1953 95.4401 23.7539 94.6276 24.1602C93.8151 24.5586 92.862 24.7578 91.7683 24.7578ZM101.888 16.8359V24.5H98.8056V7.03906H101.817V13.6367H101.981C102.286 12.8945 102.759 12.3086 103.399 11.8789C104.04 11.4492 104.864 11.2344 105.872 11.2344C106.778 11.2344 107.567 11.4258 108.239 11.8086C108.919 12.1914 109.446 12.75 109.821 13.4844C110.196 14.2188 110.384 15.1133 110.384 16.168V24.5H107.29V16.6484C107.29 15.7578 107.063 15.0703 106.61 14.5859C106.157 14.0938 105.524 13.8477 104.712 13.8477C104.165 13.8477 103.677 13.9648 103.247 14.1992C102.825 14.4336 102.493 14.7734 102.251 15.2188C102.009 15.6562 101.888 16.1953 101.888 16.8359ZM123.533 24.7695C122.173 24.7695 120.994 24.5586 119.994 24.1367C118.994 23.7148 118.212 23.1016 117.65 22.2969C117.087 21.4844 116.783 20.5 116.736 19.3438H119.853C119.9 19.9531 120.087 20.4609 120.415 20.8672C120.744 21.2656 121.173 21.5664 121.705 21.7695C122.244 21.9727 122.841 22.0742 123.497 22.0742C124.185 22.0742 124.79 21.9688 125.314 21.7578C125.837 21.5469 126.247 21.2539 126.544 20.8789C126.841 20.5039 126.99 20.0664 126.99 19.5664C126.99 19.1133 126.857 18.7422 126.591 18.4531C126.326 18.1562 125.958 17.9062 125.49 17.7031C125.021 17.5 124.47 17.3203 123.837 17.1641L121.857 16.6484C120.419 16.2812 119.287 15.7227 118.458 14.9727C117.63 14.2148 117.216 13.207 117.216 11.9492C117.216 10.918 117.494 10.0195 118.048 9.25391C118.603 8.48047 119.361 7.87891 120.322 7.44922C121.29 7.01953 122.384 6.80469 123.603 6.80469C124.845 6.80469 125.935 7.01953 126.872 7.44922C127.81 7.87891 128.544 8.47266 129.076 9.23047C129.607 9.98828 129.884 10.8594 129.908 11.8438H126.849C126.771 11.0938 126.439 10.5156 125.853 10.1094C125.275 9.69531 124.513 9.48828 123.568 9.48828C122.912 9.48828 122.345 9.58594 121.869 9.78125C121.4 9.97656 121.04 10.2461 120.79 10.5898C120.54 10.9336 120.415 11.3242 120.415 11.7617C120.415 12.2461 120.56 12.6445 120.849 12.957C121.146 13.2617 121.521 13.5078 121.974 13.6953C122.435 13.8828 122.904 14.0391 123.38 14.1641L125.009 14.5742C125.665 14.7305 126.298 14.9414 126.908 15.207C127.517 15.4648 128.064 15.793 128.548 16.1914C129.04 16.582 129.427 17.0586 129.708 17.6211C129.997 18.1836 130.142 18.8438 130.142 19.6016C130.142 20.6172 129.88 21.5156 129.357 22.2969C128.833 23.0703 128.08 23.6758 127.095 24.1133C126.111 24.5508 124.923 24.7695 123.533 24.7695ZM137.379 24.7578C136.097 24.7578 134.988 24.4766 134.05 23.9141C133.113 23.3516 132.386 22.5625 131.871 21.5469C131.363 20.5312 131.109 19.3516 131.109 18.0078C131.109 16.6562 131.363 15.4727 131.871 14.457C132.386 13.4336 133.113 12.6406 134.05 12.0781C134.988 11.5156 136.097 11.2344 137.379 11.2344C138.66 11.2344 139.769 11.5156 140.707 12.0781C141.644 12.6406 142.371 13.4336 142.886 14.457C143.402 15.4727 143.66 16.6562 143.66 18.0078C143.66 19.3516 143.402 20.5312 142.886 21.5469C142.371 22.5625 141.644 23.3516 140.707 23.9141C139.769 24.4766 138.66 24.7578 137.379 24.7578ZM137.379 22.2734C138.09 22.2734 138.675 22.0859 139.136 21.7109C139.597 21.3281 139.941 20.8125 140.168 20.1641C140.402 19.5156 140.519 18.7969 140.519 18.0078C140.519 17.2031 140.402 16.4766 140.168 15.8281C139.941 15.1797 139.597 14.668 139.136 14.293C138.675 13.9102 138.09 13.7188 137.379 13.7188C136.683 13.7188 136.101 13.9102 135.632 14.293C135.164 14.668 134.812 15.1797 134.578 15.8281C134.351 16.4766 134.238 17.2031 134.238 18.0078C134.238 18.7969 134.351 19.5156 134.578 20.1641C134.812 20.8125 135.164 21.3281 135.632 21.7109C136.101 22.0859 136.683 22.2734 137.379 22.2734ZM148.201 7.03906V24.5H145.119V7.03906H148.201ZM158.59 19.0039V11.3984H161.672V24.5H158.684V22.168H158.543C158.246 22.9023 157.762 23.5039 157.09 23.9727C156.418 24.4414 155.59 24.6719 154.606 24.6641C153.746 24.6641 152.988 24.4766 152.332 24.1016C151.684 23.7188 151.172 23.1602 150.797 22.4258C150.43 21.6836 150.246 20.7891 150.246 19.7422V11.3984H153.328V19.2734C153.328 20.0938 153.555 20.75 154.008 21.2422C154.469 21.7344 155.07 21.9766 155.813 21.9688C156.266 21.9688 156.703 21.8594 157.125 21.6406C157.555 21.4219 157.906 21.0938 158.18 20.6562C158.453 20.2188 158.59 19.668 158.59 19.0039ZM170.245 11.3984V13.7891H162.733V11.3984H170.245ZM164.573 8.28125H167.655V20.5625C167.655 21.0781 167.768 21.4609 167.995 21.7109C168.221 21.9531 168.58 22.0742 169.073 22.0742C169.205 22.0742 169.354 22.0625 169.518 22.0391C169.682 22.0156 169.83 21.9883 169.963 21.957L170.491 24.3711C170.162 24.4727 169.83 24.5469 169.495 24.5938C169.159 24.6484 168.823 24.6758 168.487 24.6758C167.268 24.6758 166.311 24.3555 165.616 23.7148C164.92 23.0664 164.573 22.1836 164.573 21.0664V8.28125ZM171.704 24.5V11.3984H174.786V24.5H171.704ZM173.251 9.55859C172.758 9.55859 172.337 9.39453 171.985 9.06641C171.633 8.73828 171.458 8.34375 171.458 7.88281C171.458 7.41406 171.633 7.01562 171.985 6.6875C172.337 6.35938 172.758 6.19531 173.251 6.19531C173.735 6.19531 174.153 6.35938 174.505 6.6875C174.856 7.01562 175.032 7.41016 175.032 7.87109C175.032 8.33984 174.856 8.73828 174.505 9.06641C174.153 9.39453 173.735 9.55859 173.251 9.55859ZM182.538 24.7578C181.257 24.7578 180.147 24.4766 179.21 23.9141C178.272 23.3516 177.546 22.5625 177.03 21.5469C176.522 20.5312 176.268 19.3516 176.268 18.0078C176.268 16.6562 176.522 15.4727 177.03 14.457C177.546 13.4336 178.272 12.6406 179.21 12.0781C180.147 11.5156 181.257 11.2344 182.538 11.2344C183.819 11.2344 184.929 11.5156 185.866 12.0781C186.804 12.6406 187.53 13.4336 188.046 14.457C188.561 15.4727 188.819 16.6562 188.819 18.0078C188.819 19.3516 188.561 20.5312 188.046 21.5469C187.53 22.5625 186.804 23.3516 185.866 23.9141C184.929 24.4766 183.819 24.7578 182.538 24.7578ZM182.538 22.2734C183.249 22.2734 183.835 22.0859 184.296 21.7109C184.757 21.3281 185.1 20.8125 185.327 20.1641C185.561 19.5156 185.679 18.7969 185.679 18.0078C185.679 17.2031 185.561 16.4766 185.327 15.8281C185.1 15.1797 184.757 14.668 184.296 14.293C183.835 13.9102 183.249 13.7188 182.538 13.7188C181.843 13.7188 181.261 13.9102 180.792 14.293C180.323 14.668 179.972 15.1797 179.737 15.8281C179.511 16.4766 179.397 17.2031 179.397 18.0078C179.397 18.7969 179.511 19.5156 179.737 20.1641C179.972 20.8125 180.323 21.3281 180.792 21.7109C181.261 22.0859 181.843 22.2734 182.538 22.2734ZM193.36 16.8359V24.5H190.278V11.3984H193.302V13.6367H193.454C193.751 12.9023 194.216 12.3203 194.849 11.8906C195.489 11.4531 196.302 11.2344 197.286 11.2344C198.192 11.2344 198.982 11.4258 199.653 11.8086C200.325 12.1914 200.845 12.7539 201.212 13.4961C201.587 14.2305 201.775 15.1211 201.775 16.168V24.5H198.692V16.6484C198.692 15.7734 198.466 15.0898 198.013 14.5977C197.56 14.0977 196.935 13.8477 196.138 13.8477C195.599 13.8477 195.118 13.9648 194.696 14.1992C194.282 14.4336 193.954 14.7734 193.712 15.2188C193.478 15.6562 193.36 16.1953 193.36 16.8359ZM214.156 14.8789L211.355 15.1719C211.238 14.7422 210.984 14.3633 210.593 14.0352C210.202 13.6992 209.652 13.5312 208.941 13.5312C208.3 13.5312 207.761 13.6719 207.324 13.9531C206.894 14.2344 206.679 14.5938 206.679 15.0312C206.679 15.4141 206.82 15.7305 207.101 15.9805C207.39 16.2227 207.867 16.418 208.531 16.5664L210.769 17.0352C211.995 17.293 212.913 17.7148 213.523 18.3008C214.132 18.8867 214.437 19.6445 214.437 20.5742C214.437 21.3945 214.199 22.1211 213.722 22.7539C213.245 23.3867 212.585 23.8789 211.742 24.2305C210.906 24.582 209.941 24.7578 208.847 24.7578C207.245 24.7578 205.956 24.4219 204.98 23.75C204.011 23.0703 203.429 22.1289 203.234 20.9258L206.245 20.6445C206.378 21.2305 206.667 21.6758 207.113 21.9805C207.566 22.2773 208.144 22.4258 208.847 22.4258C209.581 22.4258 210.171 22.2773 210.617 21.9805C211.062 21.6758 211.285 21.3047 211.285 20.8672C211.285 20.1328 210.699 19.6328 209.527 19.3672L207.288 18.8984C206.031 18.625 205.101 18.1836 204.499 17.5742C203.898 16.957 203.597 16.1719 203.597 15.2188C203.597 14.4062 203.82 13.7031 204.265 13.1094C204.71 12.5156 205.331 12.0547 206.128 11.7266C206.925 11.3984 207.847 11.2344 208.894 11.2344C210.433 11.2344 211.64 11.5664 212.515 12.2305C213.398 12.8867 213.945 13.7695 214.156 14.8789Z" fill="#0D0D12"/>
</svg>
